<mxfile host="app.diagrams.net" agent="Mozilla/5.0 (Windows NT 10.0; Win64; x64; rv:142.0) Gecko/20100101 Firefox/142.0" version="28.0.7">
  <diagram name="Page-1" id="VK_2FnD18myksuZf2ecb">
    <mxGraphModel dx="2000" dy="1896" grid="1" gridSize="10" guides="1" tooltips="1" connect="1" arrows="1" fold="1" page="1" pageScale="1" pageWidth="850" pageHeight="1100" math="0" shadow="0">
      <root>
        <mxCell id="0" />
        <mxCell id="1" parent="0" />
        <mxCell id="6edm7j1ks-AHYGCE54Jt-56" value="" style="edgeStyle=orthogonalEdgeStyle;rounded=0;orthogonalLoop=1;jettySize=auto;html=1;" parent="1" source="6edm7j1ks-AHYGCE54Jt-1" target="6edm7j1ks-AHYGCE54Jt-10" edge="1">
          <mxGeometry relative="1" as="geometry" />
        </mxCell>
        <mxCell id="6edm7j1ks-AHYGCE54Jt-1" value="Start" style="strokeWidth=2;html=1;shape=mxgraph.flowchart.start_1;whiteSpace=wrap;" parent="1" vertex="1">
          <mxGeometry x="343.28999999999996" y="-40" width="100" height="60" as="geometry" />
        </mxCell>
        <mxCell id="6edm7j1ks-AHYGCE54Jt-54" style="edgeStyle=orthogonalEdgeStyle;rounded=0;orthogonalLoop=1;jettySize=auto;html=1;exitX=0.5;exitY=1;exitDx=0;exitDy=0;entryX=0.5;entryY=0;entryDx=0;entryDy=0;" parent="1" source="6edm7j1ks-AHYGCE54Jt-3" target="6edm7j1ks-AHYGCE54Jt-4" edge="1">
          <mxGeometry relative="1" as="geometry" />
        </mxCell>
        <mxCell id="6edm7j1ks-AHYGCE54Jt-3" value="แสดง &quot;Enter value: &quot;" style="shape=parallelogram;html=1;strokeWidth=2;perimeter=parallelogramPerimeter;whiteSpace=wrap;rounded=1;arcSize=0;size=0.16666666666666666;" parent="1" vertex="1">
          <mxGeometry x="302.78999999999996" y="130" width="180" height="60" as="geometry" />
        </mxCell>
        <mxCell id="6edm7j1ks-AHYGCE54Jt-53" style="edgeStyle=orthogonalEdgeStyle;rounded=0;orthogonalLoop=1;jettySize=auto;html=1;exitX=0.5;exitY=1;exitDx=0;exitDy=0;entryX=0.5;entryY=0;entryDx=0;entryDy=0;" parent="1" source="6edm7j1ks-AHYGCE54Jt-4" target="6edm7j1ks-AHYGCE54Jt-8" edge="1">
          <mxGeometry relative="1" as="geometry" />
        </mxCell>
        <mxCell id="6edm7j1ks-AHYGCE54Jt-4" value="รับค่าจำนวนเต็ม N" style="shape=parallelogram;html=1;strokeWidth=2;perimeter=parallelogramPerimeter;whiteSpace=wrap;rounded=1;arcSize=0;size=0.16666666666666666;" parent="1" vertex="1">
          <mxGeometry x="303.28999999999996" y="220" width="180" height="60" as="geometry" />
        </mxCell>
        <mxCell id="6edm7j1ks-AHYGCE54Jt-8" value="แสดง &quot;Series:&amp;nbsp; &quot;" style="shape=parallelogram;html=1;strokeWidth=2;perimeter=parallelogramPerimeter;whiteSpace=wrap;rounded=1;arcSize=0;size=0.16666666666666666;" parent="1" vertex="1">
          <mxGeometry x="303.28999999999996" y="310" width="180" height="60" as="geometry" />
        </mxCell>
        <mxCell id="aleQx7pMXHXdCNP9Lj4S-4" style="edgeStyle=orthogonalEdgeStyle;rounded=0;orthogonalLoop=1;jettySize=auto;html=1;exitX=1;exitY=0.5;exitDx=0;exitDy=0;exitPerimeter=0;entryX=0.5;entryY=0;entryDx=0;entryDy=0;" edge="1" parent="1" source="6edm7j1ks-AHYGCE54Jt-9" target="6edm7j1ks-AHYGCE54Jt-12">
          <mxGeometry relative="1" as="geometry" />
        </mxCell>
        <mxCell id="6edm7j1ks-AHYGCE54Jt-9" value="N&amp;nbsp; หาร 2 ลงตัวหรือไม่ ?" style="strokeWidth=2;html=1;shape=mxgraph.flowchart.decision;whiteSpace=wrap;" parent="1" vertex="1">
          <mxGeometry x="318.28999999999996" y="400" width="150" height="90" as="geometry" />
        </mxCell>
        <mxCell id="6edm7j1ks-AHYGCE54Jt-55" style="edgeStyle=orthogonalEdgeStyle;rounded=0;orthogonalLoop=1;jettySize=auto;html=1;exitX=0.5;exitY=1;exitDx=0;exitDy=0;" parent="1" source="6edm7j1ks-AHYGCE54Jt-10" target="6edm7j1ks-AHYGCE54Jt-3" edge="1">
          <mxGeometry relative="1" as="geometry" />
        </mxCell>
        <mxCell id="6edm7j1ks-AHYGCE54Jt-10" value="ตั้งตัวแปรจำนวนเต็ม N &amp;lt;- -1" style="rounded=1;whiteSpace=wrap;html=1;absoluteArcSize=1;arcSize=0;strokeWidth=2;" parent="1" vertex="1">
          <mxGeometry x="307.78999999999996" y="50" width="170" height="50" as="geometry" />
        </mxCell>
        <mxCell id="6edm7j1ks-AHYGCE54Jt-11" style="edgeStyle=orthogonalEdgeStyle;rounded=0;orthogonalLoop=1;jettySize=auto;html=1;exitX=0.5;exitY=1;exitDx=0;exitDy=0;entryX=0.5;entryY=0;entryDx=0;entryDy=0;entryPerimeter=0;" parent="1" source="6edm7j1ks-AHYGCE54Jt-8" target="6edm7j1ks-AHYGCE54Jt-9" edge="1">
          <mxGeometry relative="1" as="geometry" />
        </mxCell>
        <mxCell id="6edm7j1ks-AHYGCE54Jt-12" value="i&amp;nbsp;&amp;lt;-&amp;nbsp;N&amp;nbsp;" style="rounded=1;whiteSpace=wrap;html=1;absoluteArcSize=1;arcSize=0;strokeWidth=2;" parent="1" vertex="1">
          <mxGeometry x="577.95" y="560" width="158" height="40" as="geometry" />
        </mxCell>
        <mxCell id="6edm7j1ks-AHYGCE54Jt-18" style="edgeStyle=orthogonalEdgeStyle;rounded=0;orthogonalLoop=1;jettySize=auto;html=1;exitX=0.5;exitY=1;exitDx=0;exitDy=0;exitPerimeter=0;entryX=0.5;entryY=0;entryDx=0;entryDy=0;" parent="1" source="6edm7j1ks-AHYGCE54Jt-13" target="6edm7j1ks-AHYGCE54Jt-14" edge="1">
          <mxGeometry relative="1" as="geometry" />
        </mxCell>
        <mxCell id="6edm7j1ks-AHYGCE54Jt-13" value="i มีค่ามากกว่าหรือเท่ากับ 0 ?" style="strokeWidth=2;html=1;shape=mxgraph.flowchart.decision;whiteSpace=wrap;" parent="1" vertex="1">
          <mxGeometry x="566.95" y="680" width="180" height="80" as="geometry" />
        </mxCell>
        <mxCell id="6edm7j1ks-AHYGCE54Jt-17" style="edgeStyle=orthogonalEdgeStyle;rounded=0;orthogonalLoop=1;jettySize=auto;html=1;exitX=0.5;exitY=1;exitDx=0;exitDy=0;entryX=0.5;entryY=0;entryDx=0;entryDy=0;" parent="1" source="6edm7j1ks-AHYGCE54Jt-14" target="6edm7j1ks-AHYGCE54Jt-15" edge="1">
          <mxGeometry relative="1" as="geometry" />
        </mxCell>
        <mxCell id="6edm7j1ks-AHYGCE54Jt-14" value="แสดง ค่า i" style="shape=parallelogram;html=1;strokeWidth=2;perimeter=parallelogramPerimeter;whiteSpace=wrap;rounded=1;arcSize=0;size=0.16666666666666666;" parent="1" vertex="1">
          <mxGeometry x="566.95" y="790" width="180" height="60" as="geometry" />
        </mxCell>
        <mxCell id="6edm7j1ks-AHYGCE54Jt-15" value="ลดค่า i ลง 2" style="rounded=1;whiteSpace=wrap;html=1;absoluteArcSize=1;arcSize=0;strokeWidth=2;" parent="1" vertex="1">
          <mxGeometry x="577.95" y="880" width="158" height="40" as="geometry" />
        </mxCell>
        <mxCell id="6edm7j1ks-AHYGCE54Jt-29" value="" style="strokeWidth=2;html=1;shape=mxgraph.flowchart.start_2;whiteSpace=wrap;" parent="1" vertex="1">
          <mxGeometry x="641.95" y="630" width="30" height="30" as="geometry" />
        </mxCell>
        <mxCell id="6edm7j1ks-AHYGCE54Jt-30" style="edgeStyle=orthogonalEdgeStyle;rounded=0;orthogonalLoop=1;jettySize=auto;html=1;exitX=0.5;exitY=1;exitDx=0;exitDy=0;entryX=0.5;entryY=0;entryDx=0;entryDy=0;entryPerimeter=0;" parent="1" source="6edm7j1ks-AHYGCE54Jt-12" target="6edm7j1ks-AHYGCE54Jt-29" edge="1">
          <mxGeometry relative="1" as="geometry" />
        </mxCell>
        <mxCell id="6edm7j1ks-AHYGCE54Jt-31" style="edgeStyle=orthogonalEdgeStyle;rounded=0;orthogonalLoop=1;jettySize=auto;html=1;exitX=0.5;exitY=1;exitDx=0;exitDy=0;exitPerimeter=0;entryX=0.5;entryY=0;entryDx=0;entryDy=0;entryPerimeter=0;" parent="1" source="6edm7j1ks-AHYGCE54Jt-29" target="6edm7j1ks-AHYGCE54Jt-13" edge="1">
          <mxGeometry relative="1" as="geometry" />
        </mxCell>
        <mxCell id="6edm7j1ks-AHYGCE54Jt-33" value="i &amp;lt;- 0" style="rounded=1;whiteSpace=wrap;html=1;absoluteArcSize=1;arcSize=0;strokeWidth=2;" parent="1" vertex="1">
          <mxGeometry x="314" y="690" width="158" height="40" as="geometry" />
        </mxCell>
        <mxCell id="6edm7j1ks-AHYGCE54Jt-34" style="edgeStyle=orthogonalEdgeStyle;rounded=0;orthogonalLoop=1;jettySize=auto;html=1;exitX=0.5;exitY=1;exitDx=0;exitDy=0;exitPerimeter=0;entryX=0.5;entryY=0;entryDx=0;entryDy=0;" parent="1" source="6edm7j1ks-AHYGCE54Jt-35" target="6edm7j1ks-AHYGCE54Jt-37" edge="1">
          <mxGeometry relative="1" as="geometry" />
        </mxCell>
        <mxCell id="6edm7j1ks-AHYGCE54Jt-61" value="True" style="edgeLabel;html=1;align=center;verticalAlign=middle;resizable=0;points=[];" parent="6edm7j1ks-AHYGCE54Jt-34" vertex="1" connectable="0">
          <mxGeometry x="-0.3188" y="-1" relative="1" as="geometry">
            <mxPoint x="21" as="offset" />
          </mxGeometry>
        </mxCell>
        <mxCell id="aleQx7pMXHXdCNP9Lj4S-14" value="False" style="edgeLabel;html=1;align=center;verticalAlign=middle;resizable=0;points=[];" vertex="1" connectable="0" parent="6edm7j1ks-AHYGCE54Jt-34">
          <mxGeometry x="-0.3188" y="-1" relative="1" as="geometry">
            <mxPoint x="49" y="-400" as="offset" />
          </mxGeometry>
        </mxCell>
        <mxCell id="aleQx7pMXHXdCNP9Lj4S-15" value="False" style="edgeLabel;html=1;align=center;verticalAlign=middle;resizable=0;points=[];" vertex="1" connectable="0" parent="6edm7j1ks-AHYGCE54Jt-34">
          <mxGeometry x="-0.3188" y="-1" relative="1" as="geometry">
            <mxPoint x="-121" y="-330" as="offset" />
          </mxGeometry>
        </mxCell>
        <mxCell id="6edm7j1ks-AHYGCE54Jt-35" value="i มีค่าน้อยกว่าหรือเท่ากับ N ?" style="strokeWidth=2;html=1;shape=mxgraph.flowchart.decision;whiteSpace=wrap;" parent="1" vertex="1">
          <mxGeometry x="301.97" y="810" width="180" height="80" as="geometry" />
        </mxCell>
        <mxCell id="6edm7j1ks-AHYGCE54Jt-36" style="edgeStyle=orthogonalEdgeStyle;rounded=0;orthogonalLoop=1;jettySize=auto;html=1;exitX=0.5;exitY=1;exitDx=0;exitDy=0;entryX=0.5;entryY=0;entryDx=0;entryDy=0;" parent="1" source="6edm7j1ks-AHYGCE54Jt-37" target="6edm7j1ks-AHYGCE54Jt-38" edge="1">
          <mxGeometry relative="1" as="geometry" />
        </mxCell>
        <mxCell id="6edm7j1ks-AHYGCE54Jt-37" value="แสดง ค่า i" style="shape=parallelogram;html=1;strokeWidth=2;perimeter=parallelogramPerimeter;whiteSpace=wrap;rounded=1;arcSize=0;size=0.16666666666666666;" parent="1" vertex="1">
          <mxGeometry x="301.97" y="920" width="180" height="60" as="geometry" />
        </mxCell>
        <mxCell id="6edm7j1ks-AHYGCE54Jt-38" value="เพิ่มค่า i ขึ้น 2" style="rounded=1;whiteSpace=wrap;html=1;absoluteArcSize=1;arcSize=0;strokeWidth=2;" parent="1" vertex="1">
          <mxGeometry x="310.03999999999996" y="1010" width="158" height="40" as="geometry" />
        </mxCell>
        <mxCell id="6edm7j1ks-AHYGCE54Jt-39" value="" style="strokeWidth=2;html=1;shape=mxgraph.flowchart.start_2;whiteSpace=wrap;" parent="1" vertex="1">
          <mxGeometry x="378" y="760" width="30" height="30" as="geometry" />
        </mxCell>
        <mxCell id="6edm7j1ks-AHYGCE54Jt-40" style="edgeStyle=orthogonalEdgeStyle;rounded=0;orthogonalLoop=1;jettySize=auto;html=1;exitX=0.5;exitY=1;exitDx=0;exitDy=0;entryX=0.5;entryY=0;entryDx=0;entryDy=0;entryPerimeter=0;" parent="1" source="6edm7j1ks-AHYGCE54Jt-33" target="6edm7j1ks-AHYGCE54Jt-39" edge="1">
          <mxGeometry relative="1" as="geometry" />
        </mxCell>
        <mxCell id="6edm7j1ks-AHYGCE54Jt-41" style="edgeStyle=orthogonalEdgeStyle;rounded=0;orthogonalLoop=1;jettySize=auto;html=1;exitX=0.5;exitY=1;exitDx=0;exitDy=0;exitPerimeter=0;entryX=0.5;entryY=0;entryDx=0;entryDy=0;entryPerimeter=0;" parent="1" source="6edm7j1ks-AHYGCE54Jt-39" target="6edm7j1ks-AHYGCE54Jt-35" edge="1">
          <mxGeometry relative="1" as="geometry" />
        </mxCell>
        <mxCell id="6edm7j1ks-AHYGCE54Jt-47" style="edgeStyle=orthogonalEdgeStyle;rounded=0;orthogonalLoop=1;jettySize=auto;html=1;exitX=0.5;exitY=1;exitDx=0;exitDy=0;entryX=1;entryY=0.5;entryDx=0;entryDy=0;entryPerimeter=0;" parent="1" source="6edm7j1ks-AHYGCE54Jt-38" target="6edm7j1ks-AHYGCE54Jt-39" edge="1">
          <mxGeometry relative="1" as="geometry">
            <Array as="points">
              <mxPoint x="389.03999999999996" y="1070" />
              <mxPoint x="512.04" y="1070" />
              <mxPoint x="512.04" y="775" />
            </Array>
          </mxGeometry>
        </mxCell>
        <mxCell id="6edm7j1ks-AHYGCE54Jt-48" style="edgeStyle=orthogonalEdgeStyle;rounded=0;orthogonalLoop=1;jettySize=auto;html=1;exitX=0.5;exitY=1;exitDx=0;exitDy=0;entryX=0;entryY=0.5;entryDx=0;entryDy=0;entryPerimeter=0;" parent="1" source="6edm7j1ks-AHYGCE54Jt-15" target="6edm7j1ks-AHYGCE54Jt-29" edge="1">
          <mxGeometry relative="1" as="geometry">
            <Array as="points">
              <mxPoint x="656.95" y="940" />
              <mxPoint x="549.95" y="940" />
              <mxPoint x="549.95" y="645" />
            </Array>
          </mxGeometry>
        </mxCell>
        <mxCell id="6edm7j1ks-AHYGCE54Jt-49" style="edgeStyle=orthogonalEdgeStyle;rounded=0;orthogonalLoop=1;jettySize=auto;html=1;exitX=0;exitY=0.5;exitDx=0;exitDy=0;exitPerimeter=0;entryX=0.5;entryY=0;entryDx=0;entryDy=0;entryPerimeter=0;" parent="1" source="6edm7j1ks-AHYGCE54Jt-35" target="aleQx7pMXHXdCNP9Lj4S-5" edge="1">
          <mxGeometry relative="1" as="geometry">
            <Array as="points">
              <mxPoint x="260" y="850" />
              <mxPoint x="260" y="1125" />
              <mxPoint x="389" y="1125" />
            </Array>
            <mxPoint x="540" y="1125" as="targetPoint" />
          </mxGeometry>
        </mxCell>
        <mxCell id="6edm7j1ks-AHYGCE54Jt-62" value="False" style="edgeLabel;html=1;align=center;verticalAlign=middle;resizable=0;points=[];" parent="6edm7j1ks-AHYGCE54Jt-49" vertex="1" connectable="0">
          <mxGeometry x="-0.9347" y="-1" relative="1" as="geometry">
            <mxPoint y="-9" as="offset" />
          </mxGeometry>
        </mxCell>
        <mxCell id="6edm7j1ks-AHYGCE54Jt-63" value="True" style="text;html=1;align=center;verticalAlign=middle;resizable=0;points=[];autosize=1;strokeColor=none;fillColor=none;" parent="1" vertex="1">
          <mxGeometry x="656.45" y="760" width="50" height="30" as="geometry" />
        </mxCell>
        <mxCell id="6edm7j1ks-AHYGCE54Jt-64" value="False" style="text;html=1;align=center;verticalAlign=middle;resizable=0;points=[];autosize=1;strokeColor=none;fillColor=none;" parent="1" vertex="1">
          <mxGeometry x="735.95" y="690" width="50" height="30" as="geometry" />
        </mxCell>
        <mxCell id="aleQx7pMXHXdCNP9Lj4S-3" style="edgeStyle=orthogonalEdgeStyle;rounded=0;orthogonalLoop=1;jettySize=auto;html=1;exitX=0.5;exitY=1;exitDx=0;exitDy=0;exitPerimeter=0;" edge="1" parent="1" source="aleQx7pMXHXdCNP9Lj4S-1" target="6edm7j1ks-AHYGCE54Jt-33">
          <mxGeometry relative="1" as="geometry" />
        </mxCell>
        <mxCell id="aleQx7pMXHXdCNP9Lj4S-9" style="edgeStyle=orthogonalEdgeStyle;rounded=0;orthogonalLoop=1;jettySize=auto;html=1;exitX=0;exitY=0.5;exitDx=0;exitDy=0;exitPerimeter=0;entryX=0.5;entryY=0;entryDx=0;entryDy=0;" edge="1" parent="1" source="aleQx7pMXHXdCNP9Lj4S-1" target="aleQx7pMXHXdCNP9Lj4S-8">
          <mxGeometry relative="1" as="geometry" />
        </mxCell>
        <mxCell id="aleQx7pMXHXdCNP9Lj4S-1" value="N หาร 2&amp;nbsp; เศษมากกว่า 0 ?" style="strokeWidth=2;html=1;shape=mxgraph.flowchart.decision;whiteSpace=wrap;" vertex="1" parent="1">
          <mxGeometry x="318.04" y="535" width="150" height="90" as="geometry" />
        </mxCell>
        <mxCell id="aleQx7pMXHXdCNP9Lj4S-12" style="edgeStyle=orthogonalEdgeStyle;rounded=0;orthogonalLoop=1;jettySize=auto;html=1;exitX=0.5;exitY=1;exitDx=0;exitDy=0;exitPerimeter=0;" edge="1" parent="1" source="aleQx7pMXHXdCNP9Lj4S-5" target="aleQx7pMXHXdCNP9Lj4S-11">
          <mxGeometry relative="1" as="geometry" />
        </mxCell>
        <mxCell id="aleQx7pMXHXdCNP9Lj4S-5" value="" style="strokeWidth=2;html=1;shape=mxgraph.flowchart.start_2;whiteSpace=wrap;" vertex="1" parent="1">
          <mxGeometry x="374.04" y="1180" width="30" height="30" as="geometry" />
        </mxCell>
        <mxCell id="aleQx7pMXHXdCNP9Lj4S-7" style="edgeStyle=orthogonalEdgeStyle;rounded=0;orthogonalLoop=1;jettySize=auto;html=1;exitX=1;exitY=0.5;exitDx=0;exitDy=0;exitPerimeter=0;entryX=1;entryY=0.5;entryDx=0;entryDy=0;entryPerimeter=0;" edge="1" parent="1" source="6edm7j1ks-AHYGCE54Jt-13" target="aleQx7pMXHXdCNP9Lj4S-5">
          <mxGeometry relative="1" as="geometry" />
        </mxCell>
        <mxCell id="aleQx7pMXHXdCNP9Lj4S-8" value="แสดง &quot;please enter number only.&quot;" style="shape=parallelogram;html=1;strokeWidth=2;perimeter=parallelogramPerimeter;whiteSpace=wrap;rounded=1;arcSize=0;size=0.16666666666666666;" vertex="1" parent="1">
          <mxGeometry x="20" y="760" width="220.04" height="60" as="geometry" />
        </mxCell>
        <mxCell id="aleQx7pMXHXdCNP9Lj4S-10" style="edgeStyle=orthogonalEdgeStyle;rounded=0;orthogonalLoop=1;jettySize=auto;html=1;exitX=0.5;exitY=1;exitDx=0;exitDy=0;entryX=0;entryY=0.5;entryDx=0;entryDy=0;entryPerimeter=0;" edge="1" parent="1" source="aleQx7pMXHXdCNP9Lj4S-8" target="aleQx7pMXHXdCNP9Lj4S-5">
          <mxGeometry relative="1" as="geometry" />
        </mxCell>
        <mxCell id="aleQx7pMXHXdCNP9Lj4S-11" value="End" style="strokeWidth=2;html=1;shape=mxgraph.flowchart.start_1;whiteSpace=wrap;" vertex="1" parent="1">
          <mxGeometry x="339.04" y="1240" width="100" height="60" as="geometry" />
        </mxCell>
        <mxCell id="aleQx7pMXHXdCNP9Lj4S-17" value="True" style="edgeLabel;html=1;align=center;verticalAlign=middle;resizable=0;points=[];" vertex="1" connectable="0" parent="1">
          <mxGeometry x="640" y="500" as="geometry" />
        </mxCell>
        <mxCell id="aleQx7pMXHXdCNP9Lj4S-18" value="True" style="edgeLabel;html=1;align=center;verticalAlign=middle;resizable=0;points=[];" vertex="1" connectable="0" parent="1">
          <mxGeometry x="510" y="430" as="geometry" />
        </mxCell>
        <mxCell id="aleQx7pMXHXdCNP9Lj4S-19" value="True" style="edgeLabel;html=1;align=center;verticalAlign=middle;resizable=0;points=[];" vertex="1" connectable="0" parent="1">
          <mxGeometry x="408" y="650" as="geometry" />
        </mxCell>
        <mxCell id="aleQx7pMXHXdCNP9Lj4S-20" style="edgeStyle=orthogonalEdgeStyle;rounded=0;orthogonalLoop=1;jettySize=auto;html=1;exitX=0.5;exitY=1;exitDx=0;exitDy=0;exitPerimeter=0;entryX=0.5;entryY=0;entryDx=0;entryDy=0;entryPerimeter=0;" edge="1" parent="1" source="6edm7j1ks-AHYGCE54Jt-9" target="aleQx7pMXHXdCNP9Lj4S-1">
          <mxGeometry relative="1" as="geometry" />
        </mxCell>
      </root>
    </mxGraphModel>
  </diagram>
</mxfile>
